<mxfile host="app.diagrams.net" agent="Mozilla/5.0 (Windows NT 10.0; Win64; x64; rv:136.0) Gecko/20100101 Firefox/136.0" version="26.1.3">
  <diagram name="Page-1" id="c4acf3e9-155e-7222-9cf6-157b1a14988f">
    <mxGraphModel dx="1434" dy="782" grid="1" gridSize="10" guides="1" tooltips="1" connect="1" arrows="1" fold="1" page="1" pageScale="1" pageWidth="850" pageHeight="1100" background="none" math="0" shadow="0">
      <root>
        <mxCell id="0" />
        <mxCell id="1" parent="0" />
        <mxCell id="weBvFiQJcisXPTJ0BznC-1" value="Klient&lt;div&gt;&lt;br&gt;&lt;/div&gt;" style="shape=umlActor;verticalLabelPosition=bottom;verticalAlign=top;html=1;outlineConnect=0;" parent="1" vertex="1">
          <mxGeometry x="50" y="270" width="30" height="60" as="geometry" />
        </mxCell>
        <mxCell id="weBvFiQJcisXPTJ0BznC-2" value="Formularz&lt;div&gt;Logowania&lt;/div&gt;" style="shape=umlBoundary;whiteSpace=wrap;html=1;" parent="1" vertex="1">
          <mxGeometry x="160" y="90" width="100" height="80" as="geometry" />
        </mxCell>
        <mxCell id="weBvFiQJcisXPTJ0BznC-3" value="Logowanie" style="ellipse;shape=umlControl;whiteSpace=wrap;html=1;" parent="1" vertex="1">
          <mxGeometry x="310" y="130" width="70" height="80" as="geometry" />
        </mxCell>
        <mxCell id="weBvFiQJcisXPTJ0BznC-4" value="Sprawdzenie&amp;nbsp;&lt;div&gt;wygranej&lt;/div&gt;" style="ellipse;shape=umlControl;whiteSpace=wrap;html=1;" parent="1" vertex="1">
          <mxGeometry x="400" y="230" width="90" height="100" as="geometry" />
        </mxCell>
        <mxCell id="weBvFiQJcisXPTJ0BznC-5" value="Baza danych" style="ellipse;shape=umlEntity;whiteSpace=wrap;html=1;" parent="1" vertex="1">
          <mxGeometry x="435" y="20" width="80" height="80" as="geometry" />
        </mxCell>
        <mxCell id="weBvFiQJcisXPTJ0BznC-6" value="Potwierdzenie&lt;div&gt;chęci wypłacenia&lt;/div&gt;" style="ellipse;shape=umlControl;whiteSpace=wrap;html=1;" parent="1" vertex="1">
          <mxGeometry x="395" y="410" width="100" height="110" as="geometry" />
        </mxCell>
        <mxCell id="weBvFiQJcisXPTJ0BznC-7" value="Przelew pieniędzy" style="ellipse;shape=umlControl;whiteSpace=wrap;html=1;" parent="1" vertex="1">
          <mxGeometry x="280" y="550" width="100" height="110" as="geometry" />
        </mxCell>
        <mxCell id="weBvFiQJcisXPTJ0BznC-14" value="" style="endArrow=none;html=1;rounded=0;exitX=0.584;exitY=0.065;exitDx=0;exitDy=0;exitPerimeter=0;" parent="1" source="weBvFiQJcisXPTJ0BznC-4" target="weBvFiQJcisXPTJ0BznC-5" edge="1">
          <mxGeometry width="50" height="50" relative="1" as="geometry">
            <mxPoint x="490" y="150" as="sourcePoint" />
            <mxPoint x="460" y="110" as="targetPoint" />
          </mxGeometry>
        </mxCell>
        <mxCell id="M21NKQDwbKYguIpyKEm8-2" value="" style="endArrow=none;html=1;rounded=0;" edge="1" parent="1" source="weBvFiQJcisXPTJ0BznC-3" target="weBvFiQJcisXPTJ0BznC-5">
          <mxGeometry width="50" height="50" relative="1" as="geometry">
            <mxPoint x="290" y="150" as="sourcePoint" />
            <mxPoint x="340" y="100" as="targetPoint" />
          </mxGeometry>
        </mxCell>
        <mxCell id="M21NKQDwbKYguIpyKEm8-4" value="" style="endArrow=open;endFill=1;endSize=12;html=1;rounded=0;" edge="1" parent="1" source="weBvFiQJcisXPTJ0BznC-3" target="weBvFiQJcisXPTJ0BznC-4">
          <mxGeometry width="160" relative="1" as="geometry">
            <mxPoint x="390" y="230" as="sourcePoint" />
            <mxPoint x="550" y="230" as="targetPoint" />
          </mxGeometry>
        </mxCell>
        <mxCell id="M21NKQDwbKYguIpyKEm8-5" value="Obstawiony zakład klienta" style="shape=umlBoundary;whiteSpace=wrap;html=1;" vertex="1" parent="1">
          <mxGeometry x="170" y="240" width="100" height="80" as="geometry" />
        </mxCell>
        <mxCell id="M21NKQDwbKYguIpyKEm8-6" value="" style="endArrow=none;html=1;rounded=0;entryX=0;entryY=0.313;entryDx=0;entryDy=0;entryPerimeter=0;" edge="1" parent="1" source="weBvFiQJcisXPTJ0BznC-1" target="M21NKQDwbKYguIpyKEm8-5">
          <mxGeometry width="50" height="50" relative="1" as="geometry">
            <mxPoint x="130" y="270" as="sourcePoint" />
            <mxPoint x="190" y="320" as="targetPoint" />
          </mxGeometry>
        </mxCell>
        <mxCell id="M21NKQDwbKYguIpyKEm8-7" value="" style="endArrow=open;endFill=1;endSize=12;html=1;rounded=0;" edge="1" parent="1" source="M21NKQDwbKYguIpyKEm8-5" target="weBvFiQJcisXPTJ0BznC-4">
          <mxGeometry width="160" relative="1" as="geometry">
            <mxPoint x="360" y="360" as="sourcePoint" />
            <mxPoint x="520" y="360" as="targetPoint" />
          </mxGeometry>
        </mxCell>
        <mxCell id="M21NKQDwbKYguIpyKEm8-8" value="Autoryzacja" style="shape=umlBoundary;whiteSpace=wrap;html=1;" vertex="1" parent="1">
          <mxGeometry x="170" y="350" width="100" height="80" as="geometry" />
        </mxCell>
        <mxCell id="M21NKQDwbKYguIpyKEm8-9" value="" style="endArrow=none;html=1;rounded=0;entryX=0;entryY=0.325;entryDx=0;entryDy=0;entryPerimeter=0;" edge="1" parent="1" source="weBvFiQJcisXPTJ0BznC-1" target="M21NKQDwbKYguIpyKEm8-8">
          <mxGeometry width="50" height="50" relative="1" as="geometry">
            <mxPoint x="160" y="380" as="sourcePoint" />
            <mxPoint x="210" y="330" as="targetPoint" />
          </mxGeometry>
        </mxCell>
        <mxCell id="M21NKQDwbKYguIpyKEm8-10" value="" style="endArrow=open;endFill=1;endSize=12;html=1;rounded=0;" edge="1" parent="1" source="weBvFiQJcisXPTJ0BznC-4" target="weBvFiQJcisXPTJ0BznC-6">
          <mxGeometry width="160" relative="1" as="geometry">
            <mxPoint x="410" y="340" as="sourcePoint" />
            <mxPoint x="570" y="340" as="targetPoint" />
          </mxGeometry>
        </mxCell>
        <mxCell id="M21NKQDwbKYguIpyKEm8-11" value="" style="endArrow=open;endFill=1;endSize=12;html=1;rounded=0;" edge="1" parent="1" source="M21NKQDwbKYguIpyKEm8-8" target="weBvFiQJcisXPTJ0BznC-6">
          <mxGeometry width="160" relative="1" as="geometry">
            <mxPoint x="310" y="400" as="sourcePoint" />
            <mxPoint x="470" y="400" as="targetPoint" />
          </mxGeometry>
        </mxCell>
        <mxCell id="M21NKQDwbKYguIpyKEm8-12" value="" style="endArrow=open;endFill=1;endSize=12;html=1;rounded=0;" edge="1" parent="1" source="weBvFiQJcisXPTJ0BznC-6" target="weBvFiQJcisXPTJ0BznC-7">
          <mxGeometry width="160" relative="1" as="geometry">
            <mxPoint x="420" y="560" as="sourcePoint" />
            <mxPoint x="580" y="560" as="targetPoint" />
          </mxGeometry>
        </mxCell>
        <mxCell id="M21NKQDwbKYguIpyKEm8-15" value="" style="endArrow=none;html=1;rounded=0;" edge="1" parent="1" source="weBvFiQJcisXPTJ0BznC-1" target="weBvFiQJcisXPTJ0BznC-2">
          <mxGeometry width="50" height="50" relative="1" as="geometry">
            <mxPoint x="94" y="220" as="sourcePoint" />
            <mxPoint x="190" y="200" as="targetPoint" />
          </mxGeometry>
        </mxCell>
        <mxCell id="M21NKQDwbKYguIpyKEm8-16" value="Konto klienta" style="shape=umlBoundary;whiteSpace=wrap;html=1;" vertex="1" parent="1">
          <mxGeometry x="130" y="490" width="100" height="80" as="geometry" />
        </mxCell>
        <mxCell id="M21NKQDwbKYguIpyKEm8-17" value="" style="endArrow=open;endFill=1;endSize=12;html=1;rounded=0;" edge="1" parent="1" source="weBvFiQJcisXPTJ0BznC-7" target="M21NKQDwbKYguIpyKEm8-16">
          <mxGeometry width="160" relative="1" as="geometry">
            <mxPoint x="240" y="490" as="sourcePoint" />
            <mxPoint x="400" y="490" as="targetPoint" />
          </mxGeometry>
        </mxCell>
        <mxCell id="M21NKQDwbKYguIpyKEm8-18" value="" style="endArrow=none;html=1;rounded=0;" edge="1" parent="1" source="M21NKQDwbKYguIpyKEm8-16" target="weBvFiQJcisXPTJ0BznC-1">
          <mxGeometry width="50" height="50" relative="1" as="geometry">
            <mxPoint x="50" y="480" as="sourcePoint" />
            <mxPoint x="100" y="430" as="targetPoint" />
          </mxGeometry>
        </mxCell>
        <mxCell id="M21NKQDwbKYguIpyKEm8-19" value="" style="endArrow=open;endFill=1;endSize=12;html=1;rounded=0;" edge="1" parent="1" source="weBvFiQJcisXPTJ0BznC-2" target="weBvFiQJcisXPTJ0BznC-3">
          <mxGeometry width="160" relative="1" as="geometry">
            <mxPoint x="290" y="30" as="sourcePoint" />
            <mxPoint x="450" y="30" as="targetPoint" />
          </mxGeometry>
        </mxCell>
      </root>
    </mxGraphModel>
  </diagram>
</mxfile>
